<?xml version="1.0" encoding="utf-8"?>
<!-- Generator: Adobe Illustrator 23.0.6, SVG Export Plug-In . SVG Version: 6.00 Build 0)  -->
<svg version="1.1" id="Layer_1" focusable="false" xmlns="http://www.w3.org/2000/svg" xmlns:xlink="http://www.w3.org/1999/xlink"
	 x="0px" y="0px" viewBox="0 0 576 512" style="enable-background:new 0 0 576 512;" xml:space="preserve">
<path d="M558.3,333.6c-9.6-8.6-22.1-13.4-35.2-13.4c-12.5,0-24.8,4.3-34.6,12.2l-61.6,49.3c-1.9,1.5-4.2,2.3-6.7,2.3h-41.6
	c4.6-9.6,6.5-20.7,4.8-32.3c-4-27.9-29.6-47.7-57.8-47.7H181.3c-20.8,0-41,6.7-57.6,19.2L85.3,352H8c-4.4,0-8,3.6-8,8v16
	c0,4.4,3.6,8,8,8h88l46.9-35.2c11.1-8.3,24.6-12.8,38.4-12.8H328c13.3,0,24,10.7,24,24s-10.7,24-24,24h-88c-8.8,0-16,7.2-16,16
	s7.2,16,16,16h180.2c9.7,0,19.1-3.3,26.7-9.3l61.6-49.2c4.2-3.4,9.5-5.2,14.6-5.2c5,0,9.9,1.7,13.8,5.2c10.1,9.1,9.3,24.5-0.9,32.6
	l-100.8,80.7c-7.6,6.1-17,9.3-26.7,9.3H8c-4.4,0-8,3.6-8,8v16c0,4.4,3.6,8,8,8h400.5c17,0,33.4-5.8,46.6-16.4L556,415
	c12.2-9.8,19.5-24.4,20-40S570,344.2,558.3,333.6z"/>
<path d="M288,157.2c39.5,0,71.5-32,71.5-71.5s-32-71.5-71.5-71.5s-71.5,32-71.5,71.5S248.5,157.2,288,157.2z M288,45.3
	c22.3,0,40.4,18.1,40.4,40.4s-18.1,40.4-40.4,40.4c-22.3,0-40.4-18.1-40.4-40.4S265.7,45.3,288,45.3z"/>
<title>Bitmap</title>
<desc>Created with Sketch.</desc>
<path d="M396.9,283.9c10.4-74.8-48.1-137.2-109.7-136.8c-61.1,0.4-118.6,62.6-108.2,136.8C251.7,283.9,324.3,283.9,396.9,283.9z
	 M288,178.9c40.9-0.1,75.2,32.2,77.6,73.1c-51.7,0.1-103.3,0.1-155,0.2C212.9,211.4,247.1,179,288,178.9z"/>
</svg>
